# Blender 3.3.0
# www.blender.org
mtllib factory_room.mtl
o Foundation
v 21.000000 -21.000000 1.000000
v 21.000000 -21.000000 -1.000000
v -21.000000 -21.000000 1.000000
v -21.000000 -21.000000 -1.000000
v 21.000000 21.000000 1.000000
v 21.000000 21.000000 -1.000000
v -21.000000 21.000000 1.000000
v -21.000000 21.000000 -1.000000
vn -0.0000 -0.0000 1.0000
vn -1.0000 -0.0000 -0.0000
vn -0.0000 1.0000 -0.0000
vn -0.0000 -0.0000 -1.0000
vn -0.0000 -1.0000 -0.0000
vn 1.0000 -0.0000 -0.0000
vt 0.625000 0.500000
vt 0.375000 0.500000
vt 0.625000 0.750000
vt 0.375000 0.750000
vt 0.875000 0.500000
vt 0.625000 0.250000
vt 0.125000 0.500000
vt 0.375000 0.250000
vt 0.875000 0.750000
vt 0.625000 1.000000
vt 0.625000 0.000000
vt 0.375000 1.000000
vt 0.375000 0.000000
vt 0.125000 0.750000
s 0
usemtl Material
f 1/1/1 5/5/1 7/9/1 3/3/1
f 4/4/2 3/3/2 7/10/2 8/12/2
f 8/13/3 7/11/3 5/6/3 6/8/3
f 6/7/4 2/2/4 4/4/4 8/14/4
f 2/2/5 1/1/5 3/3/5 4/4/5
f 6/8/6 5/6/6 1/1/6 2/2/6
o Walls
v 21.000000 -21.000000 1.256759
v -21.000000 -21.000000 1.256759
v 21.000000 21.000000 1.256759
v -21.000000 21.000000 1.256759
v -20.000000 -20.000000 1.256759
v -20.000000 20.000000 1.256759
v 20.000000 -20.000000 1.256759
v 20.000000 20.000000 1.256759
v -20.000000 -20.000000 6.256759
v -20.000000 20.000000 6.256759
v 20.000000 -20.000000 6.256759
v 20.000000 20.000000 6.256759
v -21.000000 -21.000000 6.256759
v -21.000000 21.000000 6.256759
v 21.000000 -21.000000 6.256759
v 21.000000 21.000000 6.256759
vn -0.0000 -0.0000 -1.0000
vn -0.0000 -0.0000 1.0000
vn -0.0000 1.0000 -0.0000
vn -1.0000 -0.0000 -0.0000
vn -0.0000 -1.0000 -0.0000
vn 1.0000 -0.0000 -0.0000
vt 0.625000 0.500000
vt 0.625000 0.750000
vt 0.875000 0.500000
vt 0.875000 0.750000
vt 0.630952 0.744048
vt 0.869048 0.744048
vt 0.630952 0.505952
vt 0.869048 0.505952
vt 0.630952 0.744048
vt 0.869048 0.744048
vt 0.630952 0.505952
vt 0.869048 0.505952
vt 0.625000 0.750000
vt 0.875000 0.750000
vt 0.625000 0.500000
vt 0.875000 0.500000
s 0
usemtl Material.001
f 13/19/7 10/16/7 12/18/7 14/20/7
f 15/21/7 9/15/7 10/16/7 13/19/7
f 14/20/7 12/18/7 11/17/7 16/22/7
f 16/22/7 11/17/7 9/15/7 15/21/7
f 17/23/8 18/24/8 22/28/8 21/27/8
f 19/25/8 17/23/8 21/27/8 23/29/8
f 18/24/8 20/26/8 24/30/8 22/28/8
f 20/26/8 19/25/8 23/29/8 24/30/8
f 15/21/9 13/19/9 17/23/9 19/25/9
f 11/17/9 12/18/9 22/28/9 24/30/9
f 12/18/10 10/16/10 21/27/10 22/28/10
f 14/20/11 16/22/11 20/26/11 18/24/11
f 13/19/12 14/20/12 18/24/12 17/23/12
f 9/15/12 11/17/12 24/30/12 23/29/12
f 10/16/11 9/15/11 23/29/11 21/27/11
f 16/22/10 15/21/10 19/25/10 20/26/10
